<svg width="56" height="57" viewBox="0 0 56 57" fill="none" xmlns="http://www.w3.org/2000/svg">
<g clip-path="url(#clip0_28_596)">
<path d="M26.7628 1.3701C26.8515 1.36903 26.9403 1.36796 27.0318 1.36686C28.9964 1.34804 30.8923 1.3671 32.8126 1.83366C32.9561 1.86708 32.9561 1.86708 33.1026 1.90117C38.3704 3.15755 43.0051 6.60482 45.881 11.1692C46.7105 12.5219 47.3848 13.8977 47.9063 15.3962C47.9524 15.5278 47.9524 15.5278 47.9993 15.6621C49.7792 20.8663 49.3259 26.6148 47.0313 31.5837C46.5065 32.643 45.9135 33.644 45.1942 34.5829C45.0305 34.8622 45.0305 34.8622 45.1211 35.1794C45.3053 35.5724 45.5137 35.9439 45.7393 36.3141C45.8386 36.48 45.9377 36.6459 46.0367 36.8119C46.1179 36.9478 46.1179 36.9478 46.2007 37.0864C46.5259 37.635 46.8431 38.1882 47.1612 38.7409C47.2309 38.8618 47.3005 38.9828 47.3723 39.1074C47.5155 39.3559 47.6587 39.6044 47.8018 39.853C48.1462 40.4509 48.4911 41.0485 48.836 41.6462C49.2476 42.3595 49.6592 43.073 50.0703 43.7867C50.8288 45.1031 51.5901 46.4177 52.3576 47.7289C52.4179 47.832 52.4781 47.935 52.5402 48.0412C52.5934 48.1319 52.6465 48.2226 52.7012 48.3161C52.9291 48.7122 52.983 48.9481 52.9376 49.4118C52.794 49.7262 52.794 49.7262 52.5001 49.9587C51.4912 50.1117 50.4428 49.8227 49.4568 49.6237C49.282 49.5893 49.1071 49.5549 48.9323 49.5207C48.4759 49.4311 48.0198 49.3401 47.5638 49.2488C47.0968 49.1556 46.6297 49.0637 46.1625 48.9717C45.2487 48.7915 44.3352 48.6099 43.4219 48.4274C43.3838 48.6225 43.3838 48.6225 43.3448 48.8216C43.1806 49.5581 42.9301 50.2663 42.6871 50.9798C42.6364 51.1296 42.5857 51.2795 42.5351 51.4293C42.4295 51.7414 42.3236 52.0534 42.2174 52.3653C42.0813 52.7648 41.9462 53.1647 41.8114 53.5646C41.7072 53.8732 41.6026 54.1817 41.4978 54.4901C41.4478 54.6376 41.3979 54.785 41.3481 54.9326C41.2787 55.1382 41.2086 55.3436 41.1385 55.5489C41.079 55.7241 41.079 55.7241 41.0183 55.9028C40.9063 56.193 40.9063 56.193 40.6876 56.5212C40.3304 56.5878 40.3304 56.5878 39.8946 56.6032C39.6806 56.6159 39.6806 56.6159 39.4622 56.6288C39.0082 56.5111 38.9623 56.4722 38.712 56.1059C38.6018 55.918 38.4949 55.7281 38.3907 55.5368C38.3324 55.4354 38.274 55.334 38.2139 55.2295C38.0234 54.8962 37.8376 54.5606 37.6524 54.2243C37.2158 53.438 36.7785 52.653 36.3194 51.8796C35.8671 51.1172 35.4221 50.3508 34.9796 49.5827C34.9102 49.4623 34.8408 49.3419 34.7693 49.2179C34.4824 48.7198 34.1956 48.2217 33.9088 47.7236C33.6961 47.3543 33.4833 46.9851 33.2706 46.6159C33.2027 46.498 33.1349 46.3802 33.065 46.2587C32.7589 45.7279 32.4515 45.1981 32.1384 44.6715C32.0866 44.5844 32.0348 44.4972 31.9815 44.4075C31.8868 44.2486 31.7917 44.09 31.696 43.9317C31.3907 43.42 31.3907 43.42 31.3907 43.1774C31.3292 43.1929 31.2677 43.2084 31.2044 43.2243C30.2366 43.4355 29.279 43.4294 28.2937 43.4247C28.0007 43.4235 27.7077 43.4247 27.4147 43.4261C26.4597 43.4267 25.5421 43.4122 24.6094 43.1774C24.5796 43.2561 24.5497 43.3348 24.519 43.4159C24.3928 43.7192 24.2488 43.9972 24.0882 44.2836C24.0277 44.3916 23.9672 44.4997 23.9049 44.611C23.8396 44.7267 23.7744 44.8424 23.7071 44.9616C23.6389 45.0829 23.5707 45.2041 23.5005 45.3291C22.9165 46.3645 22.319 47.392 21.7178 48.4176C21.3137 49.1073 20.9138 49.7993 20.5147 50.4919C20.4471 50.6091 20.3795 50.7264 20.3098 50.8472C19.9575 51.4585 19.6056 52.0699 19.2539 52.6815C18.0226 54.8214 18.0226 54.8214 17.459 55.7624C17.4193 55.8288 17.3796 55.8952 17.3386 55.9637C17.0768 56.3975 17.0768 56.3975 16.9532 56.5212C16.6764 56.5292 16.4027 56.5313 16.126 56.528C16.0094 56.5273 16.0094 56.5273 15.8904 56.5265C15.6978 56.5252 15.5052 56.5233 15.3126 56.5212C14.9231 55.6899 14.6229 54.8379 14.3299 53.9688C14.279 53.8189 14.2282 53.6691 14.1773 53.5193C14.0715 53.2074 13.966 52.8954 13.8607 52.5833C13.7258 52.1833 13.59 51.7836 13.4539 51.384C13.3491 51.0756 13.2446 50.767 13.1404 50.4585C13.0905 50.3109 13.0404 50.1634 12.9902 50.016C12.9203 49.8107 12.8512 49.6052 12.7821 49.3997C12.7426 49.2829 12.7031 49.1661 12.6624 49.0458C12.5782 48.7555 12.5782 48.7555 12.5782 48.4274C12.4822 48.4466 12.3862 48.4658 12.2873 48.4855C11.3785 48.667 10.4695 48.8473 9.5602 49.0264C9.09285 49.1185 8.62559 49.211 8.15851 49.3044C7.70696 49.3948 7.2552 49.484 6.80327 49.5725C6.6317 49.6063 6.46021 49.6405 6.28881 49.6751C4.28843 50.0783 4.28843 50.0783 3.50006 49.9587C3.17005 49.6977 3.08542 49.5452 3.01514 49.1349C3.08789 48.5529 3.3816 48.12 3.6778 47.6208C3.74182 47.5103 3.80585 47.3998 3.87182 47.2859C4.07471 46.9365 4.2795 46.5882 4.48444 46.2399C4.61046 46.0237 4.73636 45.8073 4.86212 45.5909C5.11483 45.1565 5.36825 44.7224 5.62219 44.2887C6.23627 43.2387 6.84234 42.1841 7.44947 41.1302C7.7235 40.6545 7.99778 40.1791 8.27224 39.7037C8.40763 39.4689 8.54275 39.234 8.67759 38.9989C8.99776 38.4414 9.32041 37.8859 9.6523 37.3353C9.80936 37.0744 9.96496 36.8127 10.1205 36.5509C10.2312 36.3658 10.344 36.182 10.4569 35.9982C10.5232 35.8863 10.5894 35.7744 10.6577 35.6592C10.7172 35.561 10.7766 35.4628 10.8378 35.3617C10.9671 35.0847 10.9671 35.0847 10.86 34.7977C10.7422 34.58 10.6252 34.3687 10.489 34.1621C10.4448 34.0939 10.4006 34.0257 10.3551 33.9555C10.3082 33.8834 10.2613 33.8113 10.213 33.737C7.31502 29.1815 6.17459 23.4645 7.29913 18.1532C8.64356 12.4394 11.9172 7.59029 16.8917 4.43816C19.8402 2.67334 23.2973 1.40477 26.7628 1.3701ZM14.7657 8.50554C14.6265 8.64491 14.6265 8.64491 14.4846 8.7871C14.323 8.94841 14.1594 9.1078 13.9924 9.26347C10.9907 12.1053 9.01087 16.7515 8.84181 20.8552C8.83968 21.0039 8.83817 21.1525 8.83722 21.3011C8.83645 21.3817 8.83567 21.4622 8.83488 21.5452C8.8041 24.0134 8.8041 24.0134 9.18756 26.443C9.21045 26.5355 9.23335 26.6279 9.25694 26.7232C10.1568 30.2557 11.8064 33.331 14.391 35.9117C14.5523 36.0732 14.7117 36.2368 14.8674 36.4039C18.1656 39.8875 23.2154 41.487 27.8907 41.6462C30.8308 41.6933 33.7856 40.96 36.4219 39.6774C36.4894 39.645 36.5568 39.6127 36.6263 39.5793C38.4768 38.6793 40.0659 37.4571 41.5156 36.0052C41.6771 35.8439 41.8407 35.6845 42.0078 35.5289C45.0199 32.6771 46.9885 28.0591 47.1583 23.9371C47.1604 23.7885 47.1619 23.6398 47.1629 23.4912C47.1641 23.3704 47.1641 23.3704 47.1652 23.2471C47.196 20.779 47.196 20.779 46.8126 18.3493C46.7897 18.2569 46.7668 18.1644 46.7432 18.0692C45.8433 14.5366 44.1938 11.4614 41.6091 8.88066C41.4478 8.71908 41.2884 8.5555 41.1328 8.38847C38.982 6.11684 35.9044 4.6118 32.9219 3.80241C32.8039 3.76966 32.8039 3.76966 32.6835 3.73624C26.4069 2.03618 19.3766 3.9734 14.7657 8.50554ZM12.2501 36.6149C12.209 36.6862 12.1678 36.7574 12.1255 36.8308C11.4813 37.9475 10.8371 39.0641 10.1929 40.1807C10.0927 40.3543 10.0927 40.3543 9.99054 40.5314C9.85535 40.7657 9.72015 41.0001 9.58493 41.2344C9.23988 41.8323 8.89514 42.4303 8.55096 43.0287C8.41227 43.2697 8.27356 43.5107 8.13483 43.7516C8.06778 43.8682 8.00073 43.9847 7.93164 44.1048C7.59448 44.6894 7.25447 45.2721 6.90906 45.852C6.84267 45.9635 6.77628 46.075 6.70788 46.1898C6.58183 46.4009 6.45535 46.6118 6.32838 46.8224C6.2727 46.9155 6.21703 47.0087 6.15967 47.1047C6.11054 47.1862 6.06141 47.2678 6.0108 47.3518C5.88947 47.5471 5.88947 47.5471 5.90631 47.7712C6.31653 47.6963 6.72667 47.621 7.13678 47.5456C7.26581 47.5219 7.39485 47.4982 7.52779 47.4737C8.32262 47.3267 9.11628 47.1747 9.90918 47.0175C10.0416 46.9914 10.0416 46.9914 10.1766 46.9647C10.6141 46.8783 11.0514 46.7913 11.4886 46.7032C11.6508 46.6711 11.8131 46.639 11.9753 46.6069C12.0487 46.5919 12.1221 46.5769 12.1977 46.5614C13.2647 46.3525 13.2647 46.3525 13.6749 46.5836C13.9553 46.8476 14.0276 47.0778 14.1477 47.4431C14.193 47.5781 14.2382 47.7131 14.2848 47.8523C14.3326 47.9997 14.3804 48.1471 14.4282 48.2945C14.4784 48.4456 14.5287 48.5967 14.5792 48.7477C14.7116 49.1447 14.8424 49.5423 14.9727 49.9401C15.1817 50.5773 15.3928 51.2137 15.6046 51.85C15.6783 52.0723 15.7511 52.295 15.8238 52.5178C15.8684 52.6525 15.9129 52.7871 15.9588 52.9259C15.9978 53.0449 16.0368 53.1639 16.077 53.2865C16.1708 53.5804 16.1708 53.5804 16.4063 53.7868C16.468 53.6799 16.468 53.6799 16.5309 53.5709C17.4972 51.8959 17.4972 51.8959 18.4635 50.221C18.5303 50.1053 18.597 49.9895 18.6658 49.8703C18.801 49.636 18.9362 49.4016 19.0714 49.1674C19.4165 48.5694 19.7612 47.9714 20.1054 47.373C20.9767 45.8589 21.8574 44.3508 22.7501 42.8493C22.4587 42.6971 22.1725 42.5754 21.8605 42.4725C18.3264 41.2843 15.1903 39.504 12.6239 36.7563C12.4769 36.5903 12.4769 36.5903 12.2501 36.6149ZM43.2651 36.8674C43.1553 36.9812 43.0458 37.0953 42.9366 37.2096C40.2435 39.9593 36.9049 41.6594 33.2501 42.7399C33.7306 43.6621 34.2292 44.5698 34.76 45.464C35.1806 46.1729 35.5935 46.886 36.0049 47.6003C36.0743 47.7206 36.1436 47.8409 36.215 47.9648C36.502 48.4629 36.7889 48.9611 37.0757 49.4593C37.9086 50.9057 38.7436 52.3505 39.5938 53.7868C39.8204 53.5602 39.8688 53.4524 39.9658 53.1562C40.0081 53.0289 40.0081 53.0289 40.0512 52.899C40.0811 52.8065 40.1111 52.714 40.142 52.6187C40.1738 52.5222 40.2057 52.4258 40.2385 52.3264C40.341 52.0159 40.4425 51.7051 40.544 51.3942C40.7755 50.6887 41.0082 49.9835 41.2428 49.2789C41.3112 49.0727 41.3791 48.8663 41.4466 48.6598C41.5461 48.356 41.6474 48.0529 41.7493 47.7498C41.7939 47.6115 41.7939 47.6115 41.8394 47.4703C41.883 47.3426 41.883 47.3426 41.9273 47.2123C41.952 47.1377 41.9767 47.0632 42.0022 46.9864C42.1447 46.7211 42.2852 46.6068 42.5469 46.4587C42.8019 46.4409 42.8019 46.4409 43.0852 46.4757C43.1917 46.4888 43.2982 46.5018 43.4078 46.5153C44.0086 46.6079 44.604 46.7212 45.1997 46.8419C45.3334 46.8685 45.4672 46.895 45.6049 46.9224C46.0281 47.0065 46.4511 47.0914 46.8741 47.1764C47.3006 47.2618 47.7272 47.3468 48.1538 47.4317C48.4183 47.4844 48.6828 47.5373 48.9473 47.5905C49.066 47.6143 49.1847 47.638 49.3071 47.6625C49.4118 47.6835 49.5165 47.7045 49.6243 47.7262C49.8685 47.7776 49.8685 47.7776 50.0938 47.7712C49.9526 47.4004 49.7922 47.0579 49.5965 46.7129C49.541 46.6147 49.4854 46.5165 49.4282 46.4154C49.3681 46.3101 49.3081 46.2048 49.2462 46.0964C49.1831 45.9854 49.1201 45.8744 49.0551 45.76C48.4828 44.7551 47.9001 43.7563 47.3159 42.7583C46.9081 42.0612 46.5047 41.3616 46.1016 40.6618C45.9656 40.4262 45.8296 40.1907 45.6936 39.9551C45.4461 39.5264 45.1995 39.0972 44.954 38.6673C44.7789 38.3611 44.6027 38.0555 44.4268 37.7497C44.3295 37.5784 44.3295 37.5784 44.2303 37.4036C44.1704 37.2998 44.1104 37.1961 44.0487 37.0892C43.9961 36.9973 43.9436 36.9054 43.8894 36.8108C43.8434 36.7461 43.7974 36.6815 43.7501 36.6149C43.4966 36.5898 43.4966 36.5898 43.2651 36.8674Z" fill="black"/>
<path d="M27.9726 6.61203C28.0548 6.61223 28.1369 6.61243 28.2215 6.61263C29.4191 6.61753 30.5551 6.66746 31.7187 6.97434C31.8636 7.00811 32.0084 7.04186 32.1532 7.07559C34.9316 7.76762 37.3707 9.3402 39.375 11.3493C39.5158 11.4883 39.5158 11.4883 39.6595 11.63C42.4143 14.4942 43.7742 18.4043 43.7773 22.3279C43.7774 22.4116 43.7775 22.4953 43.7775 22.5815C43.7759 23.7902 43.7409 24.9419 43.4219 26.115C43.392 26.225 43.392 26.225 43.3615 26.3373C42.562 29.2151 41.1415 31.6583 39.0469 33.7712C38.9539 33.8655 38.861 33.9599 38.7653 34.057C35.8984 36.8097 31.9934 38.1705 28.0683 38.1736C27.9846 38.1736 27.9009 38.1737 27.8146 38.1738C26.6057 38.1721 25.4548 38.1361 24.2812 37.8181C24.2102 37.7993 24.1391 37.7805 24.066 37.7612C19.9488 36.6519 16.4548 34.0322 14.2937 30.3547C12.8727 27.8753 12.2249 25.322 12.2226 22.4646C12.2226 22.3808 12.2225 22.2971 12.2224 22.2109C12.2241 21.0022 12.2591 19.8505 12.5781 18.6775C12.598 18.6041 12.618 18.5307 12.6385 18.4551C13.4379 15.5774 14.8585 13.1341 16.9531 11.0212C17.046 10.9269 17.1389 10.8326 17.2347 10.7354C20.1203 7.96462 24.0184 6.5921 27.9726 6.61203ZM17.8791 12.7131C16.5438 14.1084 15.5628 15.7881 14.875 17.5837C14.8335 17.6913 14.7921 17.7989 14.7494 17.9097C13.5108 21.36 13.867 25.2078 15.4096 28.4931C15.943 29.576 16.5991 30.5619 17.3906 31.4743C17.4669 31.5651 17.5432 31.6559 17.6217 31.7495C20.0585 34.5714 23.5485 36.0532 27.207 36.3757C30.8972 36.5506 34.4131 35.326 37.1875 32.8962C37.2726 32.8256 37.3578 32.7549 37.4455 32.6822C39.955 30.5577 41.5126 27.2732 41.8906 24.0368C42.1472 20.0032 41.2083 16.4402 38.6094 13.3181C38.4877 13.1713 38.4877 13.1713 38.3637 13.0216C36.0358 10.3244 32.5956 8.75428 29.0821 8.43335C24.8814 8.12637 20.846 9.7608 17.8791 12.7131Z" fill="black"/>
<path d="M28.547 12.6617C29.4722 13.4018 30.0996 14.5493 30.7071 15.5464C30.8497 15.7799 30.9927 16.0132 31.1361 16.2462C31.1982 16.3482 31.2604 16.4502 31.3244 16.5553C31.6939 17.1075 32.0182 17.2274 32.6592 17.378C32.7821 17.4085 32.7821 17.4085 32.9074 17.4397C33.1695 17.5047 33.4319 17.5682 33.6944 17.6314C36.4915 18.3093 36.4915 18.3093 37.044 18.8618C37.24 19.3564 37.2333 19.7018 37.0782 20.2085C36.6956 21.0098 36.0229 21.6741 35.4436 22.3383C35.0535 22.7863 34.6789 23.2457 34.305 23.7072C34.1251 23.9273 34.1251 23.9273 34.0157 24.0367C34.0263 24.3384 34.0434 24.6378 34.0636 24.939C34.1212 25.9325 34.1412 26.9244 34.1456 27.9195C34.1477 28.1278 34.1477 28.1278 34.1499 28.3404C34.1501 28.5364 34.1501 28.5364 34.1503 28.7364C34.1508 28.853 34.1512 28.9697 34.1517 29.0899C34.1248 29.3995 34.0736 29.5744 33.9063 29.8335C33.5477 30.1289 33.2241 30.2275 32.7583 30.2052C31.8577 30.0619 30.9991 29.685 30.1679 29.3234C30.0484 29.2725 29.9289 29.2216 29.8058 29.1691C29.5675 29.0669 29.3304 28.9617 29.0947 28.8535C28.4193 28.5648 27.9927 28.4527 27.2993 28.7241C27.2057 28.7654 27.1121 28.8066 27.0157 28.8492C26.7897 28.9371 26.5637 29.0249 26.3377 29.1128C26.1009 29.209 25.8644 29.3057 25.628 29.4029C23.5918 30.2383 23.5918 30.2383 22.6407 30.1617C22.3285 30.0259 22.1551 29.9293 21.9715 29.6423C21.8515 29.3358 21.8486 29.0932 21.8499 28.7641C21.8501 28.6391 21.8504 28.514 21.8506 28.3851C21.8519 28.2518 21.8532 28.1184 21.8546 27.981C21.8545 27.8442 21.8544 27.7073 21.8543 27.5664C21.8567 26.9276 21.8709 26.2981 21.9388 25.6628C22.0755 24.6401 22.0755 24.6401 21.7905 23.682C21.5078 23.3743 21.2047 23.109 20.8907 22.8335C20.6718 22.5847 20.4699 22.3243 20.2687 22.0611C20.2184 21.9964 20.1681 21.9317 20.1163 21.8651C18.7407 20.087 18.7407 20.087 18.8126 19.2242C19.0315 18.7662 19.2375 18.5402 19.703 18.3594C19.8884 18.2987 20.0748 18.2408 20.2618 18.1851C20.4109 18.1378 20.4109 18.1378 20.563 18.0895C21.4729 17.8077 22.3972 17.5789 23.3261 17.3693C23.4318 17.3447 23.5376 17.3201 23.6465 17.2947C23.7401 17.2738 23.8337 17.2529 23.9302 17.2314C24.387 17.0701 24.5707 16.7273 24.8124 16.3257C24.8711 16.2292 24.9297 16.1327 24.9902 16.0333C25.0518 15.9313 25.1134 15.8292 25.1769 15.7242C25.6841 14.894 26.1977 14.0855 26.797 13.3179C26.8717 13.2206 26.9464 13.1233 27.0234 13.0231C27.4606 12.501 27.9095 12.4909 28.547 12.6617ZM27.8907 14.9585C27.7137 15.1937 27.7137 15.1937 27.5335 15.4981C27.4632 15.6121 27.3928 15.7261 27.3204 15.8436C27.2102 16.0247 27.2102 16.0247 27.0978 16.2095C26.8831 16.5592 26.6682 16.9087 26.452 17.2575C26.3245 17.4633 26.1983 17.6699 26.0739 17.8775C26.0198 17.9645 25.9657 18.0515 25.91 18.1411C25.8644 18.2162 25.8187 18.2914 25.7717 18.3688C25.3289 18.8645 24.6572 18.9901 24.0361 19.1434C23.9521 19.1648 23.868 19.1862 23.7814 19.2082C23.5153 19.2758 23.2489 19.3423 22.9825 19.4087C22.8011 19.4546 22.6196 19.5005 22.4382 19.5465C21.9955 19.6586 21.5526 19.7698 21.1095 19.8804C21.3662 20.3205 21.657 20.7005 21.9913 21.0835C22.4255 21.5891 22.848 22.1014 23.256 22.6284C23.3025 22.6879 23.349 22.7474 23.397 22.8087C24.1289 23.7623 23.8496 25.0233 23.7588 26.1596C23.7191 26.8008 23.7257 27.4414 23.7345 28.0835C24.0059 27.9908 24.277 27.8974 24.548 27.8033C24.6311 27.7744 24.7143 27.7456 24.8 27.7158C25.2396 27.5608 25.6724 27.3977 26.1006 27.2132C26.2225 27.1608 26.2225 27.1608 26.3469 27.1073C26.5017 27.0398 26.6559 26.971 26.8093 26.9007C27.5989 26.5565 28.2466 26.5933 29.0665 26.8804C29.1341 26.9038 29.2016 26.9273 29.2712 26.9514C30.1821 27.2738 31.0758 27.6443 31.9692 28.0119C32.14 28.09 32.14 28.09 32.2657 28.0835C32.2771 27.3329 32.2664 26.5902 32.211 25.8413C32.1737 25.3104 32.1411 24.7808 32.129 24.2486C32.1262 24.139 32.1234 24.0295 32.1205 23.9166C32.2043 23.1753 32.6759 22.6888 33.1544 22.1568C33.2817 22.0125 33.4089 21.8681 33.5359 21.7235C33.5985 21.6527 33.661 21.5818 33.7255 21.5087C33.9841 21.2135 34.2367 20.9139 34.4874 20.6118C34.5659 20.5175 34.6445 20.4232 34.7254 20.326C34.9122 20.1165 34.9122 20.1165 34.8907 19.8804C34.7677 19.8501 34.6446 19.8199 34.5179 19.7887C34.0598 19.6754 33.6023 19.5597 33.145 19.4431C32.9473 19.3931 32.7495 19.3438 32.5515 19.2952C32.2662 19.225 31.9816 19.1524 31.6971 19.0793C31.609 19.0582 31.5209 19.0371 31.4301 19.0154C30.6347 18.8063 30.2513 18.3825 29.8185 17.6908C29.7212 17.5365 29.7212 17.5365 29.6219 17.3791C29.5559 17.2729 29.49 17.1666 29.422 17.0572C29.356 16.9522 29.29 16.8472 29.222 16.7391C28.7131 15.9287 28.7131 15.9287 28.4944 15.5621C28.3715 15.3575 28.2413 15.1574 28.1095 14.9585C28.0373 14.9585 27.9651 14.9585 27.8907 14.9585Z" fill="black"/>
</g>
<defs>
<clipPath id="clip0_28_596">
<rect width="56" height="56" fill="white" transform="translate(0 0.520996)"/>
</clipPath>
</defs>
</svg>
