<svg width="56" height="57" viewBox="0 0 56 57" fill="none" xmlns="http://www.w3.org/2000/svg">
<path d="M25.03 3.34728C25.1615 3.34623 25.2929 3.34518 25.4283 3.34409C25.6416 3.3434 25.6416 3.3434 25.8592 3.34268C26.0067 3.34206 26.1543 3.34143 26.3018 3.3408C26.6112 3.33965 26.9206 3.33901 27.23 3.33863C27.6253 3.33803 28.0207 3.3354 28.416 3.33229C28.7209 3.33024 29.0257 3.32968 29.3306 3.32951C29.5469 3.32902 29.7632 3.32698 29.9794 3.32492C30.1119 3.32525 30.2444 3.32558 30.3809 3.32592C30.4969 3.32552 30.613 3.32512 30.7326 3.32471C31.2914 3.39277 31.7181 3.62964 32.0743 4.06217C32.1268 4.12392 32.1792 4.18568 32.2333 4.2493C32.6649 4.88631 32.624 5.51592 32.6336 6.26377C32.6667 6.66089 32.6667 6.66089 32.966 6.89182C33.0597 6.95512 33.1535 7.01843 33.2501 7.08365C33.7267 7.72288 33.797 8.26372 33.797 9.03873C33.819 9.59103 33.819 9.59103 34.1093 10.0334C34.2806 10.1366 34.4553 10.2345 34.6327 10.3269C35.1708 10.6342 35.4684 11.1298 35.673 11.7013C35.7601 12.0899 35.7809 12.4159 35.7793 12.8101C35.7612 13.5544 35.7612 13.5544 36.0571 14.2101C36.2826 14.3672 36.2826 14.3672 36.5237 14.4947C37.0602 14.8166 37.305 15.4439 37.463 16.0264C37.5833 16.5846 37.6411 17.1545 37.714 17.7204C38.0853 20.4423 38.694 23.1787 40.9247 24.9955C41.5224 25.44 42.1595 25.7684 42.8255 26.0947C45.057 27.1885 47.4231 28.4471 48.3439 30.9274C48.8979 32.8246 48.677 34.9274 47.7456 36.6531C46.4175 38.9459 43.9788 40.3363 41.4872 41.0344C39.803 41.4668 38.0405 41.5368 36.3126 41.6462C36.2236 41.6521 36.1346 41.658 36.0429 41.664C14.9779 43.0321 14.9779 43.0321 9.28331 38.5631C7.89881 37.2644 6.93022 35.6134 6.85399 33.6938C6.82352 31.642 7.14097 30.1624 8.58605 28.6237C9.72141 27.5477 11.0206 26.8821 12.4293 26.2286C14.5884 25.2155 16.0608 23.8014 16.9259 21.5622C17.3268 20.3527 17.5411 19.0944 17.7107 17.834C17.7281 17.7086 17.7455 17.5831 17.7635 17.4539C17.7966 17.2097 17.8276 16.9653 17.856 16.7205C17.9643 15.9198 18.1798 15.2605 18.7032 14.6305C18.9464 14.4731 18.9464 14.4731 19.1749 14.3571C19.4283 14.1904 19.5574 14.074 19.6205 13.7724C19.6524 13.432 19.6592 13.0935 19.664 12.7518C19.6779 11.8374 19.8578 11.1626 20.4942 10.4811C20.7417 10.2424 20.9136 10.1372 21.2398 10.0094C21.3412 9.94627 21.4425 9.8831 21.547 9.81803C21.6302 9.45668 21.6302 9.45668 21.6085 9.04557C21.6205 8.29495 21.7439 7.69257 22.2032 7.08365C22.2984 7.01922 22.3936 6.95479 22.4916 6.8884C22.7896 6.65894 22.7896 6.65894 22.8121 6.25138C22.8138 6.10043 22.8136 5.94944 22.8116 5.7985C22.8296 5.12885 22.849 4.55071 23.297 4.02115C23.8401 3.53121 24.2952 3.35202 25.03 3.34728ZM24.7189 5.33365C24.7189 5.6585 24.7189 5.98334 24.7189 6.31803C26.704 6.31803 28.6892 6.31803 30.7345 6.31803C30.7345 5.99318 30.7345 5.66834 30.7345 5.33365C30.5521 5.15131 30.3327 5.21034 30.0823 5.21012C29.9666 5.20978 29.8509 5.20943 29.7317 5.20908C29.6058 5.2093 29.4799 5.20952 29.3502 5.20975C29.222 5.20965 29.0937 5.20954 28.9616 5.20943C28.6898 5.20936 28.418 5.20956 28.1462 5.21002C27.7285 5.2106 27.3108 5.21002 26.8931 5.20932C26.6298 5.2094 26.3665 5.20954 26.1031 5.20975C25.9772 5.20953 25.8514 5.20931 25.7216 5.20908C25.6059 5.20942 25.4903 5.20977 25.371 5.21012C25.2686 5.21021 25.1662 5.2103 25.0607 5.21039C24.8299 5.19837 24.8299 5.19837 24.7189 5.33365ZM23.5157 8.50553C23.5157 8.86646 23.5157 9.2274 23.5157 9.59928C26.295 9.59928 29.0742 9.59928 31.9376 9.59928C31.9376 9.23834 31.9376 8.8774 31.9376 8.50553C31.5333 8.10123 31.4205 8.13601 30.8646 8.13494C30.7893 8.13437 30.7141 8.13379 30.6365 8.1332C30.3877 8.13176 30.139 8.13271 29.8902 8.13382C29.7174 8.1336 29.5445 8.13328 29.3717 8.13287C29.0094 8.13239 28.6472 8.13309 28.2849 8.13462C27.8204 8.13649 27.3559 8.13542 26.8913 8.13345C26.5344 8.13227 26.1775 8.13264 25.8206 8.13349C25.6493 8.13371 25.478 8.13344 25.3067 8.13268C25.0673 8.13185 24.8281 8.13312 24.5888 8.13494C24.4525 8.1352 24.3163 8.13547 24.1759 8.13574C23.8066 8.14759 23.8066 8.14759 23.5157 8.50553ZM21.7657 11.8962C21.4736 12.3989 21.4736 12.3989 21.547 13.318C25.6256 13.318 29.7042 13.318 33.9064 13.318C33.9359 12.4625 33.9359 12.4625 33.5782 11.7868C33.0201 11.4253 32.548 11.4111 31.9058 11.4145C31.8056 11.4137 31.7054 11.413 31.6021 11.4122C31.272 11.4102 30.942 11.4106 30.6119 11.4112C30.3817 11.4107 30.1515 11.4101 29.9213 11.4095C29.4393 11.4085 28.9572 11.4088 28.4752 11.4099C27.8583 11.4111 27.2414 11.4089 26.6245 11.4057C26.1493 11.4037 25.674 11.4037 25.1988 11.4044C24.9714 11.4044 24.744 11.4037 24.5166 11.4024C24.1982 11.4007 23.88 11.4019 23.5617 11.4038C23.4683 11.4027 23.3749 11.4017 23.2787 11.4006C22.6513 11.4083 22.2761 11.5232 21.7657 11.8962ZM20.0502 15.9619C19.8845 16.1921 19.8404 16.3531 19.7927 16.6317C19.7671 16.7769 19.7671 16.7769 19.7409 16.9251C19.7233 17.0341 19.7057 17.1432 19.6876 17.2555C19.6675 17.3776 19.6474 17.4997 19.6266 17.6255C19.5827 17.8953 19.5393 18.1652 19.4963 18.4351C19.1206 20.7791 18.7077 23.1266 17.172 25.0212C17.1016 25.1105 17.0313 25.1999 16.9588 25.292C15.8824 26.5773 14.5668 27.2775 13.0691 27.9692C12.1924 28.3768 11.3947 28.831 10.6095 29.3962C10.5318 29.4517 10.4541 29.5073 10.3741 29.5645C9.58212 30.1849 9.03098 31.0629 8.75011 32.0212C8.75011 32.1655 8.75011 32.3099 8.75011 32.4587C21.2746 32.4587 33.7992 32.4587 46.7032 32.4587C46.3837 30.861 45.6247 29.9882 44.3042 29.0616C43.6528 28.6444 42.9904 28.3063 42.2872 27.9879C39.7457 26.831 37.8334 25.0413 36.8329 22.4036C36.2903 20.9207 36.059 19.4 35.8518 17.8405C35.8412 17.7636 35.8306 17.6868 35.8196 17.6076C35.7906 17.3965 35.7628 17.1852 35.7351 16.9739C35.6363 16.5038 35.4958 16.0961 35.1355 15.767C35.066 15.7258 34.9965 15.6847 34.9249 15.6422C34.8228 15.5788 34.8228 15.5788 34.7186 15.5141C33.9599 15.1769 33.2286 15.1453 32.4119 15.1474C32.2415 15.1465 32.2415 15.1465 32.0677 15.1457C31.6942 15.1442 31.3207 15.1443 30.9473 15.1445C30.6863 15.1441 30.4253 15.1436 30.1643 15.1431C29.618 15.1423 29.0718 15.1423 28.5255 15.1429C27.8272 15.1435 27.129 15.1417 26.4307 15.1391C25.8919 15.1375 25.3531 15.1374 24.8143 15.1378C24.557 15.1377 24.2996 15.1371 24.0423 15.136C23.6816 15.1347 23.321 15.1354 22.9604 15.1367C22.8552 15.1358 22.7501 15.135 22.6417 15.1341C21.703 15.1414 20.7531 15.2902 20.0502 15.9619ZM8.85948 34.318C9.4455 36.2714 10.6965 37.5124 12.4689 38.4743C14.0588 39.2657 15.7697 39.5433 17.5266 39.6817C17.6974 39.6954 17.6974 39.6954 17.8716 39.7094C19.0479 39.8012 20.2246 39.8632 21.4034 39.9098C21.5174 39.9144 21.6314 39.9189 21.7489 39.9236C27.3269 40.14 32.956 40.1239 38.5206 39.6364C38.6529 39.6253 38.7852 39.6142 38.9215 39.6027C41.366 39.3607 43.8067 38.447 45.5001 36.6149C45.983 35.9732 46.5939 35.1504 46.5939 34.318C34.1415 34.318 21.6892 34.318 8.85948 34.318Z" fill="black"/>
<path d="M34.8907 44.4897C35.1765 44.6627 35.2906 44.8005 35.3859 45.1219C35.5398 45.8364 35.6533 46.5546 35.7597 47.2775C35.7788 47.4065 35.7979 47.5355 35.8176 47.6685C35.8577 47.9403 35.8976 48.2121 35.9373 48.4839C35.9978 48.8966 36.0597 49.3091 36.1216 49.7216C36.1606 49.987 36.1994 50.2523 36.2382 50.5177C36.2659 50.7003 36.2659 50.7003 36.2942 50.8866C36.5374 52.5818 36.5374 52.5818 36.4219 53.2397C36.0839 53.6508 36.0839 53.6508 35.7657 53.7353C35.6574 53.7336 35.6574 53.7336 35.5469 53.7319C35.4748 53.733 35.4026 53.7342 35.3282 53.7353C35.0041 53.6492 34.8832 53.4991 34.6719 53.2397C34.5953 52.968 34.5444 52.7264 34.5057 52.4493C34.4868 52.3288 34.4868 52.3288 34.4674 52.2058C34.4396 52.0276 34.4127 51.8492 34.3865 51.6707C34.3416 51.3655 34.2943 51.0607 34.2467 50.7558C34.1591 50.192 34.0749 49.6277 33.992 49.0631C33.9402 48.7125 33.8873 48.362 33.8343 48.0115C33.8009 47.7847 33.7675 47.5578 33.7341 47.3309C33.7184 47.2281 33.7027 47.1253 33.6865 47.0194C33.4247 45.2023 33.4247 45.2023 33.7423 44.6333C34.1325 44.4284 34.4595 44.4054 34.8907 44.4897Z" fill="black"/>
<path d="M21.8749 44.4899C22.1962 44.6334 22.1962 44.6334 22.4218 44.9274C22.5356 45.8484 22.3508 46.8024 22.218 47.7122C22.1967 47.8612 22.1754 48.0102 22.1541 48.1592C22.1097 48.4691 22.0647 48.7788 22.0192 49.0885C21.9612 49.4844 21.905 49.8805 21.8494 50.2767C21.8061 50.5835 21.7616 50.8901 21.7168 51.1966C21.6854 51.4132 21.655 51.63 21.6247 51.8468C21.605 51.9786 21.5853 52.1104 21.565 52.2463C21.5399 52.4197 21.5399 52.4197 21.5142 52.5967C21.4049 53.0449 21.2151 53.3528 20.8905 53.6774C20.1095 53.753 20.1095 53.753 19.7851 53.492C19.4087 53.0338 19.5361 52.4929 19.578 51.9274C19.6316 51.3943 19.7041 50.8652 19.7818 50.335C19.8032 50.1862 19.8244 50.0373 19.8457 49.8885C19.89 49.5793 19.9351 49.2702 19.9806 48.9612C20.0387 48.5662 20.0948 48.1709 20.1504 47.7755C20.1938 47.4692 20.2382 47.1631 20.283 46.857C20.3144 46.6409 20.3448 46.4246 20.3751 46.2083C20.3948 46.0769 20.4145 45.9454 20.4348 45.8099C20.4516 45.6946 20.4683 45.5793 20.4856 45.4605C20.5689 45.1197 20.6878 44.8845 20.8905 44.5993C21.2296 44.4297 21.5007 44.4582 21.8749 44.4899Z" fill="black"/>
<path d="M27.8869 44.4395C28.2206 44.515 28.337 44.6594 28.5469 44.9274C28.5902 45.2115 28.6069 45.4493 28.6036 45.7332C28.6043 45.8136 28.6051 45.894 28.6059 45.9769C28.6078 46.2423 28.6065 46.5076 28.6051 46.7731C28.6053 46.9578 28.6058 47.1425 28.6063 47.3272C28.607 47.7141 28.606 48.1009 28.604 48.4878C28.6015 48.9836 28.6029 49.4793 28.6055 49.9752C28.6071 50.3565 28.6066 50.7378 28.6055 51.1191C28.6052 51.3019 28.6056 51.4847 28.6066 51.6675C28.6077 51.9231 28.606 52.1785 28.6036 52.4341C28.6044 52.5096 28.6053 52.585 28.6062 52.6628C28.5997 53.0307 28.5686 53.2123 28.3383 53.5053C28.022 53.7431 27.8259 53.7398 27.4425 53.7205C27.1217 53.654 26.9836 53.5011 26.7969 53.2399C26.672 52.8651 26.6729 52.5757 26.6717 52.1804C26.6713 52.1065 26.671 52.0327 26.6706 51.9566C26.6695 51.7124 26.6693 51.4683 26.6692 51.2241C26.6689 51.0542 26.6685 50.8844 26.6681 50.7145C26.6674 50.3583 26.6672 50.0021 26.6673 49.6459C26.6673 49.19 26.6658 48.7341 26.6639 48.2782C26.6627 47.9272 26.6625 47.5763 26.6626 47.2254C26.6624 47.0573 26.6619 46.8893 26.6611 46.7212C26.66 46.4858 26.6603 46.2505 26.661 46.0152C26.6608 45.8814 26.6607 45.7476 26.6605 45.6097C26.6875 45.2568 26.7399 45.0197 26.9063 44.7086C27.2579 44.4742 27.4723 44.457 27.8869 44.4395Z" fill="black"/>
<path d="M16.7343 43.2866C17.0532 43.5049 17.151 43.6489 17.2534 44.0209C17.2876 44.4638 17.1895 44.7299 17.0269 45.1426C16.9988 45.2154 16.9706 45.2882 16.9416 45.3632C16.8489 45.6013 16.7541 45.8385 16.6591 46.0757C16.5941 46.2408 16.5292 46.4059 16.4645 46.5711C16.3308 46.9114 16.1961 47.2512 16.0608 47.5908C15.8971 48.0022 15.7367 48.4148 15.5778 48.8281C15.4612 49.1312 15.3434 49.4337 15.2253 49.7362C15.1697 49.8792 15.1145 50.0222 15.0597 50.1655C14.9833 50.3646 14.905 50.563 14.8266 50.7613C14.783 50.8734 14.7393 50.9855 14.6943 51.1009C14.5332 51.406 14.4068 51.538 14.1093 51.7085C13.6285 51.7785 13.4234 51.7645 13.0223 51.4829C12.7331 51.071 12.7526 50.8951 12.7968 50.396C12.8987 50.0408 13.0357 49.7031 13.1766 49.3617C13.216 49.263 13.2555 49.1644 13.2961 49.0628C13.4224 48.7479 13.5504 48.4338 13.6786 48.1197C13.8031 47.8108 13.9273 47.5018 14.0515 47.1928C14.1334 46.9894 14.2157 46.7862 14.2984 46.5831C14.496 46.0971 14.6886 45.6104 14.8688 45.1177C14.9022 45.0275 14.9357 44.9374 14.9701 44.8445C15.0319 44.6765 15.0924 44.5081 15.1512 44.3391C15.4492 43.5344 15.857 43.159 16.7343 43.2866Z" fill="black"/>
<path d="M40.0313 43.2865C40.6859 43.6492 40.8457 44.285 41.0947 44.9485C41.1415 45.0691 41.1882 45.1897 41.2364 45.314C41.3854 45.6994 41.5321 46.0857 41.6788 46.4721C41.7778 46.7296 41.877 46.9871 41.9764 47.2445C42.2008 47.8267 42.4235 48.4095 42.6457 48.9925C42.7977 49.3847 42.9573 49.7737 43.1191 50.162C43.2476 50.5195 43.2691 50.7882 43.2032 51.1615C42.9197 51.5653 42.7612 51.6897 42.2735 51.7768C41.8115 51.6943 41.6111 51.5308 41.3438 51.1615C41.1519 50.7816 41.0038 50.3881 40.8551 49.9896C40.811 49.875 40.7669 49.7605 40.7216 49.6425C40.5813 49.2766 40.443 48.91 40.3048 48.5434C40.2119 48.3006 40.1189 48.0578 40.0258 47.8151C39.807 47.244 39.5918 46.6716 39.3778 46.0986C39.2783 45.8354 39.1757 45.5738 39.0713 45.3125C39.0193 45.1784 38.9673 45.0443 38.9137 44.9062C38.8697 44.7964 38.8258 44.6867 38.7806 44.5736C38.7018 44.1875 38.7796 43.9711 38.9376 43.6146C39.271 43.2574 39.5542 43.2184 40.0313 43.2865Z" fill="black"/>
<path d="M44.7344 41.8647C44.9584 41.9889 44.9584 41.9889 45.1941 42.1531C45.2804 42.2128 45.3667 42.2725 45.4556 42.334C45.5424 42.3957 45.6293 42.4574 45.7188 42.521C45.7978 42.5769 45.8768 42.6329 45.9582 42.6906C46.196 42.8607 46.4327 43.0323 46.6689 43.2046C47.1591 43.5614 47.649 43.9179 48.1476 44.2628C48.218 44.3118 48.2883 44.3608 48.3608 44.4112C48.4917 44.5021 48.6231 44.5922 48.7551 44.6814C49.0823 44.9097 49.3138 45.0874 49.4375 45.4741C49.4293 45.9344 49.3994 46.1603 49.0889 46.5063C48.7124 46.7155 48.5521 46.7317 48.125 46.6772C47.8189 46.5194 47.5516 46.3171 47.2773 46.1098C47.1975 46.0514 47.1176 45.9929 47.0354 45.9327C46.8656 45.8084 46.6963 45.6835 46.5274 45.558C46.2646 45.3639 45.9995 45.1735 45.7333 44.984C45.5598 44.8603 45.3863 44.7365 45.2129 44.6128C45.1327 44.5556 45.0525 44.4985 44.9699 44.4396C43.5789 43.4376 43.5789 43.4376 43.4082 42.8969C43.4233 42.4814 43.4936 42.297 43.75 41.9741C44.103 41.7976 44.3413 41.821 44.7344 41.8647Z" fill="black"/>
<path d="M12.0312 41.8646C12.3597 42.0894 12.4505 42.2449 12.5713 42.6234C12.5797 43.0376 12.4895 43.1705 12.25 43.5053C11.9723 43.7518 11.9723 43.7518 11.6348 44.0043C11.5735 44.0504 11.5122 44.0965 11.449 44.1439C10.7768 44.6452 10.091 45.1279 9.40283 45.6069C9.14159 45.7889 8.88537 45.9739 8.63037 46.1649C8.53675 46.2347 8.44313 46.3045 8.34668 46.3764C8.231 46.4652 8.231 46.4652 8.11298 46.5558C7.79779 46.7165 7.568 46.7095 7.21875 46.6771C6.91113 46.5063 6.91113 46.5063 6.67187 46.2396C6.57597 45.8816 6.51591 45.6197 6.63043 45.2617C6.84231 44.9454 7.12699 44.7611 7.4375 44.5512C7.57585 44.4551 7.71413 44.359 7.85236 44.2628C7.92643 44.2115 8.0005 44.1603 8.07682 44.1075C8.58059 43.7554 9.07553 43.3907 9.57223 43.0287C9.98054 42.7327 10.3914 42.4404 10.8068 42.1543C10.8847 42.1004 10.9627 42.0464 11.043 41.9908C11.3905 41.7939 11.6447 41.7889 12.0312 41.8646Z" fill="black"/>
</svg>
