<svg width="56" height="57" viewBox="0 0 56 57" fill="none" xmlns="http://www.w3.org/2000/svg">
<g clip-path="url(#clip0_28_600)">
<path d="M54.2363 27.277C54.8518 27.8532 55.0627 28.5227 55.1797 29.3414C55.0036 30.5737 54.4258 31.3004 53.556 32.1545C53.4395 32.2716 53.3232 32.3889 53.2071 32.5064C52.8933 32.8227 52.5772 33.1366 52.2605 33.45C51.9277 33.78 51.5969 34.112 51.2658 34.4437C50.7093 35.0006 50.1513 35.556 49.5923 36.1104C48.9488 36.7487 48.3076 37.3892 47.6677 38.0311C47.0492 38.6515 46.429 39.2703 45.8082 39.8884C45.5454 40.15 45.2832 40.4122 45.0214 40.6747C44.7119 40.9849 44.4011 41.2937 44.0892 41.6015C43.9759 41.7137 43.8631 41.8264 43.7508 41.9396C41.3644 44.3418 38.0453 45.1364 34.7812 45.5836C34.6662 45.6001 34.5511 45.6166 34.4325 45.6337C32.7591 45.8618 31.0998 45.923 29.4129 45.9203C29.3346 45.9202 29.2563 45.9201 29.1756 45.9199C28.3754 45.9183 27.5753 45.9135 26.7752 45.9027C26.4697 45.8987 26.1641 45.8961 25.8586 45.8936C25.6483 45.8913 25.438 45.8872 25.2277 45.8829C23.1798 45.8662 21.4133 46.4673 19.9062 47.8805C19.6728 48.128 19.4614 48.379 19.25 48.6461C19.3154 48.7206 19.3808 48.795 19.4482 48.8717C20.0297 49.6526 20.1042 50.3123 20.0156 51.2711C19.8043 52.5507 18.3989 53.5726 17.5207 54.4606C17.4017 54.5814 17.2833 54.7028 17.1654 54.8248C16.3732 55.6446 15.6353 56.3842 14.4717 56.5938C14.2923 56.5916 14.2923 56.5916 14.1094 56.5895C13.9898 56.5909 13.8703 56.5923 13.7471 56.5938C12.6453 56.3953 11.9143 55.7178 11.1506 54.9438C11.0458 54.8396 10.9409 54.7356 10.8359 54.6316C10.5536 54.3512 10.273 54.0692 9.99268 53.7868C9.69776 53.4901 9.40145 53.1947 9.10536 52.8992C8.6086 52.4029 8.11296 51.9056 7.61798 51.4075C7.04737 50.8334 6.47501 50.261 5.90169 49.6896C5.34799 49.1376 4.79553 48.5844 4.24362 48.0307C4.00972 47.796 3.77539 47.5618 3.54071 47.3279C3.26399 47.0521 2.98839 46.7751 2.71359 46.4973C2.56557 46.3482 2.41649 46.2001 2.26737 46.0521C1.47345 45.2458 0.955003 44.5243 0.84082 43.3824C0.928273 42.298 1.39385 41.5584 2.15802 40.816C2.24004 40.7338 2.32205 40.6515 2.40655 40.5668C2.57911 40.3947 2.7526 40.2235 2.92698 40.0532C3.1921 39.7939 3.45352 39.5312 3.71469 39.2679C3.88374 39.1001 4.053 38.9325 4.22247 38.7652C4.3384 38.6486 4.3384 38.6486 4.45666 38.5297C5.05773 37.9481 5.66424 37.551 6.50525 37.4395C6.61889 37.4426 6.73253 37.4457 6.84961 37.4489C6.97128 37.4513 7.09296 37.4536 7.21832 37.4561C7.51142 37.4862 7.6894 37.5368 7.9502 37.6608C8.31185 37.7497 8.31185 37.7497 8.55902 37.5386C8.85014 37.2752 9.12706 37.0002 9.40625 36.7242C9.59786 36.5622 9.79157 36.4027 9.9873 36.2457C10.4365 35.882 10.8801 35.5127 11.3203 35.1383C11.8483 34.6895 12.3822 34.2491 12.9203 33.8126C13.1498 33.6224 13.3756 33.4304 13.5997 33.2341C16.5686 30.634 19.3694 29.7954 23.2969 29.943C24.5091 30.0263 25.6402 30.3583 26.7821 30.7618C28.1193 31.2229 29.4647 31.2868 30.8643 31.2855C31.1322 31.2854 31.4001 31.2868 31.668 31.2887C32.4284 31.2937 33.1888 31.2964 33.9492 31.2972C34.4177 31.2977 34.886 31.3004 35.3545 31.3043C35.531 31.3054 35.7076 31.3056 35.8842 31.305C37.1878 31.3009 38.4085 31.4012 39.4775 32.233C39.5751 32.3085 39.6727 32.3839 39.7732 32.4616C40.0614 32.7026 40.326 32.946 40.5781 33.2242C41.1645 32.6988 41.7484 32.171 42.3281 31.6383C42.7273 31.2716 43.1278 30.9066 43.5312 30.5446C43.9298 30.1868 44.326 29.8265 44.7207 29.4645C44.8029 29.3891 44.8029 29.3891 44.8868 29.3122C45.1679 29.0545 45.4482 28.7959 45.7273 28.5361C48.2107 26.2285 51.2239 24.8739 54.2363 27.277ZM46.8676 30.1301C46.5311 30.4474 46.1871 30.7538 45.8367 31.0555C45.4598 31.3871 45.0935 31.73 44.7253 32.0712C44.3663 32.4037 44.0052 32.7336 43.6406 33.0602C43.1998 33.4554 42.7632 33.8549 42.3281 34.2565C42.2664 34.3134 42.2046 34.3704 42.141 34.4291C41.9083 34.6442 41.6772 34.8595 41.4531 35.0836C41.4486 35.378 41.4545 35.665 41.4668 35.9586C41.4824 36.8462 41.4158 37.5526 40.8302 38.2611C39.887 39.1832 38.6966 39.1786 37.4437 39.1712C37.2848 39.1715 37.1258 39.1719 36.9669 39.1724C36.5385 39.1734 36.1101 39.1724 35.6817 39.171C35.2323 39.1697 34.7829 39.1702 34.3335 39.1704C33.5798 39.1705 32.8261 39.1693 32.0723 39.1673C31.2012 39.1649 30.33 39.1646 29.4588 39.1652C28.6194 39.1659 27.7799 39.1653 26.9405 39.164C26.5837 39.1635 26.2269 39.1634 25.8701 39.1637C25.4504 39.1639 25.0308 39.163 24.6112 39.1612C24.4573 39.1608 24.3033 39.1607 24.1493 39.161C23.9393 39.1613 23.7292 39.1602 23.5192 39.159C23.4016 39.1588 23.2841 39.1586 23.163 39.1583C22.8569 39.1303 22.6772 39.0797 22.4219 38.9117C22.2515 38.571 22.2507 38.1894 22.3125 37.818C22.4379 37.643 22.4379 37.643 22.6406 37.4899C22.934 37.4487 22.934 37.4487 23.2951 37.4485C23.4319 37.4476 23.5687 37.4467 23.7096 37.4457C23.8615 37.4464 24.0133 37.4471 24.1652 37.4478C24.3249 37.4473 24.4846 37.4467 24.6444 37.446C24.9885 37.4447 25.3326 37.4445 25.6767 37.445C26.2209 37.4457 26.765 37.444 27.3092 37.4418C28.4646 37.4377 29.62 37.4363 30.7754 37.4352C32.0219 37.434 33.2685 37.4323 34.515 37.4274C35.0559 37.4254 35.5968 37.425 36.1377 37.4258C36.4743 37.426 36.811 37.4248 37.1476 37.4232C37.3037 37.4228 37.4597 37.4229 37.6157 37.4237C37.8289 37.4246 38.0421 37.4233 38.2553 37.4219C38.3745 37.4218 38.4937 37.4217 38.6166 37.4217C38.9824 37.3747 39.1878 37.2678 39.4844 37.0524C39.7886 36.624 39.7103 36.2191 39.6519 35.7194C39.4806 34.813 38.9373 34.1485 38.1864 33.6301C37.5789 33.2677 37.1208 33.2105 36.4209 33.2053C36.3445 33.2045 36.2681 33.2038 36.1895 33.203C36.0238 33.2015 35.8581 33.2002 35.6925 33.1991C35.4287 33.1973 35.165 33.1948 34.9012 33.192C34.1513 33.1843 33.4014 33.1778 32.6515 33.1721C32.1922 33.1686 31.7328 33.1641 31.2735 33.1589C31.0999 33.1572 30.9263 33.1559 30.7528 33.1549C29.0831 33.1457 27.5569 32.9727 25.9561 32.4586C23.149 31.5666 20.0558 31.3557 17.3651 32.7338C16.6194 33.1474 16.0013 33.6973 15.3759 34.2713C15.1233 34.4994 14.8596 34.7128 14.5947 34.9264C14.1549 35.2835 13.7207 35.6464 13.2891 36.0133C12.7599 36.4629 12.2253 36.9049 11.6865 37.3429C11.2587 37.695 10.837 38.0542 10.4167 38.4151C9.97669 38.7906 9.97669 38.7906 9.73438 38.9117C9.89624 39.2877 10.1077 39.5298 10.3975 39.8168C10.4892 39.9081 10.5809 39.9994 10.6753 40.0934C10.7747 40.1913 10.874 40.2892 10.9764 40.39C11.1327 40.5454 11.289 40.7009 11.4453 40.8563C11.6644 41.074 11.8841 41.2913 12.1037 41.5085C12.5384 41.9385 12.9725 42.3692 13.4061 42.8003C13.5565 42.9496 13.7073 43.0985 13.8581 43.2474C14.3428 43.7285 14.8093 44.2162 15.254 44.7345C15.4909 45.0066 15.7433 45.261 15.9991 45.5153C16.1002 45.6161 16.2014 45.7169 16.3056 45.8207C16.4098 45.924 16.514 46.0273 16.6182 46.1305C16.7254 46.2371 16.8325 46.3438 16.9397 46.4505C17.1991 46.7087 17.4588 46.9666 17.7188 47.2242C18.119 47.0381 18.3534 46.8175 18.6553 46.4928C20.1448 44.9793 22.2708 44.096 24.3924 44.0443C24.7894 44.0434 25.1861 44.0458 25.5831 44.0494C25.7322 44.0501 25.8813 44.0508 26.0305 44.0514C26.6582 44.0541 27.2859 44.0579 27.9136 44.0629C30.4565 44.0823 32.9734 44.023 35.4854 43.5807C35.6234 43.5568 35.7615 43.5328 35.9037 43.5082C37.348 43.2499 38.7008 42.9269 40.0381 42.316C40.111 42.2829 40.184 42.2497 40.2591 42.2155C41.3438 41.6887 42.1814 40.8405 43.023 39.9952C43.1327 39.8858 43.2424 39.7765 43.3521 39.6672C43.6473 39.3731 43.9417 39.0782 44.236 38.7833C44.545 38.4737 44.8546 38.1646 45.1641 37.8555C45.6829 37.3371 46.2012 36.8182 46.7193 36.2991C47.318 35.6991 47.9175 35.1 48.5175 34.5013C49.0337 33.9861 49.5495 33.4704 50.0649 32.9544C50.3723 32.6467 50.6798 32.3391 50.9877 32.0319C51.2767 31.7436 51.5651 31.4548 51.8531 31.1655C52.0092 31.009 52.1659 30.8529 52.3226 30.6969C52.4154 30.6035 52.5081 30.5102 52.6037 30.414C52.6845 30.3331 52.7652 30.2522 52.8485 30.1689C53.1142 29.8663 53.2692 29.6466 53.2588 29.2389C53.089 28.7749 52.8037 28.5153 52.3697 28.284C50.0025 27.2038 48.5454 28.5457 46.8676 30.1301ZM4.40261 41.2701C4.22324 41.4492 4.04301 41.6275 3.86273 41.8057C3.74775 41.9204 3.63282 42.0351 3.51794 42.1498C3.4644 42.2026 3.41085 42.2554 3.35569 42.3097C2.96711 42.6946 2.96711 42.6946 2.73438 43.1774C2.77539 43.7022 2.89358 43.9521 3.26209 44.3236C3.35209 44.4156 3.44208 44.5076 3.53481 44.6024C3.63429 44.7013 3.73377 44.8002 3.83627 44.9021C3.94166 45.0088 4.04693 45.1156 4.1521 45.2224C4.4376 45.5118 4.72484 45.7995 5.01254 46.0867C5.25275 46.3268 5.49215 46.5676 5.73158 46.8085C6.29651 47.3767 6.86291 47.9435 7.43021 48.5094C8.01509 49.0929 8.59731 49.679 9.17829 50.2663C9.67758 50.7709 10.1785 51.2738 10.6809 51.7753C10.9807 52.0747 11.2799 52.3748 11.5774 52.6765C11.8573 52.9602 12.1392 53.2417 12.4228 53.5216C12.5757 53.6736 12.7264 53.8277 12.8771 53.9819C13.4243 54.5425 13.4243 54.5425 14.1514 54.7431C14.5381 54.6636 14.6963 54.6206 14.9658 54.3439C15.0354 54.2746 15.1051 54.2052 15.1768 54.1337C15.2485 54.0579 15.3202 53.982 15.3941 53.9038C15.4703 53.8266 15.5465 53.7495 15.625 53.67C15.867 53.4238 16.1058 53.1747 16.3447 52.9254C16.5082 52.7585 16.6719 52.5917 16.8358 52.4251C17.1341 52.1205 17.4318 51.8154 17.7271 51.5079C17.7864 51.4462 17.8456 51.3845 17.9067 51.3209C18.1011 51.1002 18.1555 50.9467 18.2109 50.6559C18.0798 49.771 17.0054 49.0109 16.3935 48.4005C16.2967 48.3034 16.1998 48.2064 16.1001 48.1064C15.837 47.843 15.5738 47.5799 15.3104 47.3168C15.034 47.0407 14.7579 46.7643 14.4817 46.488C14.0188 46.0249 13.5557 45.562 13.0924 45.0993C12.5567 44.5642 12.0214 44.0287 11.4863 43.493C11.026 43.0321 10.5654 42.5715 10.1047 42.111C9.82983 41.8364 9.55507 41.5616 9.28051 41.2867C8.97527 40.9811 8.66958 40.6759 8.36385 40.3708C8.27277 40.2795 8.18169 40.1882 8.08785 40.0941C8.00491 40.0115 7.92197 39.9289 7.83651 39.8437C7.76431 39.7716 7.69211 39.6994 7.61772 39.6251C7.36383 39.3906 7.22426 39.3501 6.87695 39.2946C5.89002 39.4219 5.08978 40.5828 4.40261 41.2701Z" fill="black"/>
<path d="M37.0344 6.35002C37.9135 6.97564 38.3726 7.8388 38.794 8.80637C39.2675 9.9857 39.2675 9.9857 40.2509 10.7149C40.9778 10.8837 41.7316 10.9558 42.4713 11.0471C43.5908 11.2034 44.4073 11.5395 45.1236 12.4337C45.7047 13.2745 45.7294 14.2116 45.5697 15.2061C45.2359 16.3254 44.0076 17.2271 43.1994 18.021C43.1307 18.0888 43.062 18.1565 42.9913 18.2263C42.9294 18.2869 42.8675 18.3475 42.8037 18.41C42.4847 18.7522 42.5187 19.0734 42.5213 19.52C42.553 19.9665 42.6308 20.3977 42.711 20.8376C42.9528 22.2001 43.0796 23.3757 42.3008 24.5756C41.8252 25.2066 41.1728 25.5638 40.4086 25.7428C39.1848 25.9084 38.2746 25.4288 37.2217 24.8503C36.9825 24.7194 36.7428 24.5894 36.5027 24.4602C36.3978 24.4026 36.293 24.345 36.1849 24.2857C35.8539 24.1367 35.5803 24.0662 35.2188 24.0368C34.9274 24.152 34.6769 24.2693 34.4053 24.4196C34.2506 24.5008 34.0958 24.5819 33.9409 24.6628C33.8236 24.725 33.8236 24.725 33.7038 24.7884C33.3374 24.9808 32.9669 25.1635 32.5938 25.3425C32.4675 25.4044 32.3411 25.4663 32.211 25.5301C31.3859 25.8477 30.5894 25.8389 29.75 25.5681C28.9035 25.1491 28.3884 24.5642 28 23.7087C27.6737 22.6285 27.9757 21.4599 28.1823 20.3847C28.3784 19.3888 28.3784 19.3888 28.0791 18.4459C28.0192 18.3824 27.9592 18.319 27.8975 18.2536C27.8288 18.1806 27.7602 18.1076 27.6894 18.0323C27.4344 17.7842 27.1723 17.5466 26.9063 17.3103C26.0152 16.518 25.2853 15.7791 25.1149 14.5507C25.0751 13.642 25.3303 12.8597 25.8809 12.1355C26.7333 11.2601 27.8575 11.1121 29.0186 10.9529C29.3101 10.9119 29.6012 10.8691 29.8923 10.8255C30.02 10.8078 30.1476 10.7901 30.2791 10.7719C30.7295 10.6693 31.0478 10.5354 31.324 10.156C31.3628 10.0784 31.4016 10.0007 31.4415 9.92063C31.4857 9.83402 31.53 9.74742 31.5755 9.65819C31.6205 9.56658 31.6656 9.47497 31.712 9.38059C31.8084 9.19203 31.9048 9.00347 32.0012 8.81491C32.1527 8.51365 32.3026 8.21173 32.4515 7.90915C32.8619 7.10423 33.3582 6.49343 34.1934 6.10617C35.1223 5.81544 36.1948 5.8389 37.0344 6.35002ZM34.4532 8.17746C34.2921 8.44719 34.1585 8.70016 34.0293 8.9841C33.9539 9.14183 33.8783 9.29949 33.8025 9.45706C33.7651 9.53593 33.7276 9.6148 33.6891 9.69606C33.5246 10.0392 33.3516 10.3766 33.1749 10.7136C33.0896 10.8783 33.0896 10.8783 33.0027 11.0464C32.5324 11.7956 31.8739 12.3297 31.0115 12.5321C30.5668 12.6073 30.1221 12.6717 29.6749 12.7302C29.4444 12.7613 29.214 12.7929 28.9838 12.8261C28.7759 12.8559 28.5677 12.8836 28.3595 12.9112C27.9931 12.9915 27.7598 13.1066 27.4532 13.3181C27.3584 13.3824 27.3584 13.3824 27.2618 13.448C27.0401 13.7693 26.9834 14.1385 27.0157 14.5212C27.2399 14.952 27.5134 15.2586 27.8629 15.5932C27.9635 15.6911 28.0641 15.789 28.1677 15.8899C28.3262 16.0429 28.485 16.1956 28.6444 16.3477C29.5272 17.1924 30.1498 17.8968 30.2034 19.1598C30.2012 19.8872 30.0331 20.5983 29.896 21.3099C29.7779 21.9639 29.6629 22.6211 29.8594 23.2712C30.1052 23.5974 30.4048 23.7726 30.7823 23.9275C31.4158 23.9275 32.0297 23.4961 32.5733 23.1981C34.929 21.9114 34.929 21.9114 36.3125 22.2868C36.838 22.5007 37.3362 22.773 37.8358 23.0405C38.2028 23.2369 38.5717 23.4278 38.9444 23.613C39.072 23.6787 39.1996 23.7444 39.331 23.8121C39.7958 23.9562 40.0239 23.8921 40.4688 23.7087C40.8883 23.3427 40.9977 23.1892 41.0704 22.6355C41.0484 22.2265 40.974 21.8314 40.8969 21.4295C40.7564 20.6958 40.6483 19.9793 40.6329 19.2312C40.6295 19.0881 40.6261 18.945 40.6226 18.7975C40.7079 17.7654 41.3893 17.0234 42.1094 16.3464C42.224 16.2355 42.224 16.2355 42.341 16.1223C42.5546 15.9158 42.7694 15.7106 42.9844 15.5056C43.5527 14.9824 43.5527 14.9824 43.7911 14.2683C43.7423 13.7889 43.6252 13.5721 43.3125 13.2087C42.8944 13.0024 42.4844 12.9319 42.0253 12.8644C41.8829 12.8424 41.7406 12.8204 41.594 12.7977C41.3701 12.7638 41.1463 12.7303 40.9223 12.6977C39.7339 12.5233 38.8162 12.3645 38.0289 11.4008C37.6601 10.8624 37.3945 10.2714 37.1192 9.68137C37.0005 9.42728 36.8807 9.17375 36.7594 8.92087C36.7076 8.80959 36.6558 8.69832 36.6024 8.58367C36.4003 8.25123 36.1945 8.0682 35.875 7.84934C35.6538 7.78564 35.6538 7.78564 35.4375 7.80149C35.3676 7.80163 35.2977 7.80177 35.2256 7.80191C34.9023 7.86989 34.7159 7.97359 34.4532 8.17746Z" fill="black"/>
<path d="M28.6562 2.48955C29.2019 2.955 29.692 3.66901 29.7829 4.39165C29.7548 4.72885 29.6763 4.96124 29.4629 5.22392C29.0905 5.38071 28.8378 5.38947 28.4375 5.3333C27.8225 4.88327 27.3076 4.08068 27.166 3.33037C27.2527 2.95756 27.407 2.7622 27.6719 2.48955C28.0203 2.31534 28.2846 2.40624 28.6562 2.48955Z" fill="black"/>
<path d="M43.0938 2.48957C43.436 2.71777 43.5146 2.85459 43.6064 3.25519C43.5695 3.96247 43.0359 4.67162 42.6033 5.20557C42.3486 5.40181 42.0853 5.38449 41.7744 5.37134C41.5625 5.33332 41.5625 5.33332 41.2959 5.15558C41.0856 4.83597 41.0436 4.62084 41.0156 4.23957C41.1331 3.93152 41.1331 3.93152 41.3096 3.63117C41.3703 3.52754 41.4311 3.42391 41.4937 3.31714C41.9749 2.559 42.1787 2.28447 43.0938 2.48957Z" fill="black"/>
<path d="M23.2969 7.73996C23.9789 8.04937 24.6141 8.34684 24.9376 9.05246C24.9306 9.45773 24.9149 9.71059 24.6573 10.03C24.2558 10.205 23.9374 10.2432 23.5157 10.1462C22.3477 9.59734 22.3477 9.59734 21.9844 9.05246C21.9125 8.29732 21.9125 8.29732 22.1485 7.90402C22.5472 7.66483 22.8546 7.63312 23.2969 7.73996Z" fill="black"/>
<path d="M35.4444 0.452846C35.8751 0.521206 35.8751 0.521206 36.1169 0.737392C36.3822 1.18569 36.3811 1.54084 36.3741 2.05246C36.3767 2.13931 36.3793 2.22616 36.382 2.31564C36.3808 2.78651 36.354 2.98261 36.0596 3.36795C35.7657 3.58371 35.7657 3.58371 35.376 3.64523C34.9475 3.5751 34.8223 3.48582 34.5626 3.14621C34.3852 2.79146 34.4193 2.40771 34.4122 2.01828C34.406 1.8936 34.406 1.8936 34.3998 1.76641C34.3925 1.30392 34.4133 1.12087 34.7014 0.739529C35.1029 0.446056 35.1029 0.446056 35.4444 0.452846Z" fill="black"/>
<path d="M21.6084 14.8972C21.7478 14.8954 21.7478 14.8954 21.8901 14.8936C22.5638 14.9015 22.5638 14.9015 22.9174 15.1651C23.111 15.4437 23.1793 15.6025 23.1875 15.9431C23.0564 16.3145 22.9755 16.5377 22.6209 16.7258C22.252 16.8362 21.9318 16.851 21.5468 16.8523C21.416 16.8541 21.2852 16.856 21.1503 16.8578C20.751 16.8149 20.5513 16.7317 20.2343 16.49C19.9778 16.1052 19.9522 15.9587 20.0156 15.5056C20.4705 14.8784 20.89 14.877 21.6084 14.8972Z" fill="black"/>
<path d="M48.3437 7.73998C48.6171 7.90404 48.6171 7.90404 48.7812 8.17748C48.8555 8.69768 48.8773 8.91914 48.5692 9.34643C47.4769 10.1713 47.4769 10.1713 46.7782 10.2078C46.3749 10.1462 46.3749 10.1462 46.1015 9.98217C45.8724 9.60039 45.8418 9.26068 45.9374 8.83373C46.4914 8.06523 47.4059 7.59693 48.3437 7.73998Z" fill="black"/>
<path d="M49.2188 14.9039C49.3175 14.9022 49.4162 14.9005 49.5179 14.8987C50.2316 14.903 50.2316 14.903 50.5963 15.1534C50.8348 15.5297 50.8395 15.8401 50.7501 16.271C50.5086 16.5957 50.3688 16.6898 49.9845 16.8179C49.7364 16.8339 49.4879 16.8421 49.2393 16.8453C49.042 16.8495 49.042 16.8495 48.8407 16.8538C48.4176 16.8146 48.157 16.7115 47.797 16.4898C47.6258 16.1475 47.6113 15.7667 47.6876 15.396C48.0538 14.8113 48.598 14.8932 49.2188 14.9039Z" fill="black"/>
</g>
<defs>
<clipPath id="clip0_28_600">
<rect width="56" height="56" fill="white" transform="translate(0 0.520996)"/>
</clipPath>
</defs>
</svg>
