<svg width="56" height="57" viewBox="0 0 56 57" fill="none" xmlns="http://www.w3.org/2000/svg">
<path d="M2.74115 25.8275C3.17182 25.8959 3.17182 25.8959 3.41428 26.1167C3.66336 26.5331 3.66766 26.8824 3.66059 27.3532C3.66179 27.5362 3.66302 27.7191 3.66427 27.902C3.66414 27.9974 3.66401 28.0929 3.66388 28.1912C3.66674 34.8618 6.10468 40.8826 10.7187 45.6928C10.8043 45.7829 10.8899 45.873 10.978 45.9658C11.5796 46.5846 12.2252 47.1321 12.9062 47.6615C12.9954 47.7313 12.9954 47.7313 13.0864 47.8025C18.122 51.7143 24.6555 53.513 30.9813 52.7201C34.0167 52.3064 36.8959 51.4168 39.5937 49.9584C39.6592 49.9235 39.7246 49.8885 39.7921 49.8525C41.4368 48.9695 42.9525 47.8608 44.3173 46.5883C44.8133 46.1389 45.2095 45.8062 45.9058 45.7992C46.4465 45.968 46.7451 46.3329 47.1269 46.7387C47.2022 46.8164 47.2775 46.8942 47.355 46.9743C47.5401 47.1657 47.7237 47.3583 47.9062 47.5521C48.3745 45.9163 48.7884 44.268 49.1982 42.6166C49.2642 42.3516 49.3302 42.0865 49.3962 41.8215C49.5561 41.1797 49.7156 40.5378 49.8749 39.8959C48.9089 40.1361 47.943 40.3767 46.9771 40.6175C46.5286 40.7294 46.0801 40.8411 45.6316 40.9526C45.1989 41.0602 44.7664 41.168 44.3338 41.276C44.1685 41.3172 44.0033 41.3583 43.838 41.3994C43.6069 41.4567 43.376 41.5144 43.145 41.5722C43.0134 41.605 42.8817 41.6377 42.7461 41.6715C42.4458 41.7421 42.4458 41.7421 42.2187 41.8646C42.2673 41.9126 42.3158 41.9606 42.3658 42.01C42.586 42.2279 42.8056 42.4462 43.0253 42.6645C43.1018 42.74 43.1782 42.8155 43.2569 42.8932C43.3302 42.9662 43.4035 43.0392 43.4791 43.1143C43.5467 43.1814 43.6143 43.2484 43.6839 43.3174C44.0374 43.6959 44.1081 43.9643 44.1392 44.4751C44.0442 44.8378 43.8042 45.0059 43.5312 45.2553C43.4404 45.3445 43.3496 45.4338 43.2561 45.5257C39.4337 49.146 34.0387 51.2682 28.7861 51.3256C28.6119 51.3286 28.6119 51.3286 28.4341 51.3317C27.6437 51.3251 27.6437 51.3251 27.2706 51.0761C27.0427 50.6964 27.0377 50.3875 27.1249 49.9584C27.3256 49.6686 27.4544 49.5504 27.7944 49.4577C28.1197 49.41 28.4399 49.3949 28.7683 49.3854C33.5547 49.2357 38.2357 47.3737 41.7812 44.1615C41.7083 44.0938 41.6354 44.026 41.5603 43.9563C41.2892 43.702 41.0205 43.4456 40.7531 43.1875C40.6373 43.0766 40.5206 42.9666 40.403 42.8576C39.3013 41.8341 39.3013 41.8341 39.2656 41.2114C39.2851 40.8873 39.3567 40.7891 39.5885 40.5576C40.0309 40.26 40.4616 40.1572 40.9758 40.0327C41.0813 40.006 41.1868 39.9793 41.2956 39.9517C41.6437 39.8639 41.9923 39.7782 42.3409 39.6925C42.5835 39.6319 42.8261 39.5713 43.0687 39.5105C43.5769 39.3835 44.0854 39.2575 44.594 39.1321C45.2453 38.9717 45.896 38.8091 46.5466 38.6459C47.0474 38.5204 47.5485 38.3958 48.0497 38.2715C48.2897 38.212 48.5296 38.1521 48.7695 38.092C49.1051 38.0082 49.441 37.9255 49.7771 37.8431C49.8757 37.8182 49.9744 37.7933 50.076 37.7677C50.6013 37.6404 51.0803 37.5513 51.6249 37.599C51.9462 37.8246 51.9462 37.8246 52.1718 38.1459C52.2286 38.7946 52.0849 39.3705 51.9278 39.9938C51.9018 40.0997 51.8758 40.2056 51.8491 40.3147C51.7633 40.6633 51.6763 41.0115 51.5891 41.3596C51.5288 41.6025 51.4685 41.8453 51.4083 42.0881C51.282 42.5963 51.155 43.1043 51.0276 43.6122C50.8644 44.263 50.7034 44.9142 50.5429 45.5656C50.4191 46.0669 50.294 46.5678 50.1685 47.0687C50.1086 47.3087 50.0491 47.5488 49.9901 47.789C49.9075 48.1247 49.823 48.4599 49.7381 48.7951C49.7141 48.8942 49.6901 48.9933 49.6654 49.0954C49.5298 49.6219 49.3952 50.0006 48.9999 50.3959C48.6522 50.5472 48.3724 50.5119 48.0156 50.3959C47.5621 50.0614 47.1867 49.66 46.8056 49.2475C46.6997 49.1366 46.5935 49.0259 46.4871 48.9155C46.2286 48.6454 45.9727 48.3733 45.7187 48.099C45.5807 48.2009 45.4428 48.3031 45.3051 48.4054C45.2284 48.4622 45.1516 48.5191 45.0725 48.5777C44.8581 48.7441 44.6592 48.9188 44.4609 49.1039C42.0503 51.2373 38.9196 52.7223 35.8749 53.6771C35.7937 53.7029 35.7125 53.7287 35.6287 53.7552C33.6138 54.3838 31.4744 54.7777 29.3612 54.797C29.2637 54.798 29.1662 54.7991 29.0658 54.8002C26.8884 54.8192 24.7778 54.8008 22.6406 54.3334C22.5327 54.31 22.4249 54.2865 22.3137 54.2624C16.9696 53.0594 11.7354 50.1658 8.20307 45.9115C8.11749 45.8162 8.03191 45.7209 7.94373 45.6227C4.77742 42.0682 2.68144 37.3663 1.96869 32.6771C1.94962 32.5545 1.93054 32.4318 1.91088 32.3054C1.7509 31.1728 1.70577 30.0525 1.7034 28.9092C1.70207 28.6059 1.69665 28.3028 1.6912 27.9994C1.69016 27.8048 1.68937 27.6102 1.68885 27.4156C1.68671 27.3258 1.68457 27.2361 1.68237 27.1436C1.68611 26.6706 1.70726 26.4963 2.01286 26.1131C2.28945 25.9015 2.40042 25.8208 2.74115 25.8275Z" fill="#253137"/>
<path d="M27.9248 2.23015C28.0304 2.23021 28.1361 2.23027 28.2449 2.23033C29.9837 2.23482 31.6552 2.33596 33.3593 2.70866C33.5211 2.74382 33.5211 2.74382 33.6862 2.77969C39.0303 3.98265 44.2645 6.87621 47.7968 11.1305C47.8824 11.2258 47.968 11.3212 48.0562 11.4194C51.2227 14.9741 53.318 19.6756 54.0312 24.3649C54.0504 24.4876 54.0695 24.6103 54.0893 24.7366C54.2498 25.8697 54.2907 26.9891 54.2905 28.1328C54.291 28.4362 54.295 28.7393 54.2991 29.0426C54.2997 29.2372 54.3002 29.4318 54.3004 29.6264C54.3027 29.7611 54.3027 29.7611 54.3051 29.8985C54.3016 30.3356 54.2812 30.5496 54.0432 30.929C53.7808 31.176 53.6757 31.2206 53.3203 31.2145C53.2379 31.2159 53.1556 31.2173 53.0708 31.2188C52.7013 31.1082 52.5955 30.9222 52.3906 30.5993C52.3506 30.2819 52.3346 30.0054 52.3393 29.6888C52.3381 29.5059 52.3369 29.323 52.3356 29.1401C52.3358 29.0446 52.3359 28.9492 52.336 28.8508C52.3332 22.2933 49.9803 16.2574 45.4357 11.5107C45.2926 11.3612 45.1508 11.2104 45.0091 11.0596C44.285 10.3083 43.4887 9.67698 42.6562 9.05241C42.5947 9.00559 42.5333 8.95876 42.4699 8.91052C41.4249 8.11728 40.32 7.46857 39.1562 6.86491C39.0743 6.82218 38.9924 6.77944 38.908 6.73541C33.3523 3.87284 26.6961 3.38232 20.7445 5.23871C19.2385 5.7294 17.7997 6.3316 16.4062 7.08366C16.2167 7.18433 16.2167 7.18433 16.0234 7.28703C14.4977 8.12615 13.1099 9.14768 11.8073 10.3C10.7395 11.2379 10.7395 11.2379 10.0988 11.2416C9.55373 11.0755 9.25688 10.7114 8.87301 10.3034C8.79772 10.2256 8.72243 10.1479 8.64486 10.0678C8.45985 9.87633 8.27623 9.68373 8.09371 9.48991C7.62539 11.1258 7.21155 12.7741 6.80172 14.4255C6.73574 14.6905 6.66973 14.9555 6.60369 15.2206C6.44384 15.8624 6.28428 16.5042 6.12496 17.1462C7.09099 16.9059 8.05695 16.6654 9.02282 16.4245C9.47129 16.3127 9.91978 16.201 10.3683 16.0895C10.801 15.9819 11.2336 15.8741 11.6661 15.7661C11.8314 15.7249 11.9966 15.6837 12.1619 15.6427C12.393 15.5853 12.6239 15.5277 12.8549 15.4699C13.0524 15.4207 13.0524 15.4207 13.2538 15.3705C13.5541 15.3 13.5541 15.3 13.7812 15.1774C13.7327 15.1294 13.6841 15.0815 13.6341 15.032C13.414 14.8142 13.1943 14.5959 12.9746 14.3776C12.8982 14.3021 12.8217 14.2266 12.743 14.1488C12.6697 14.0759 12.5964 14.0029 12.5208 13.9277C12.4533 13.8607 12.3857 13.7937 12.316 13.7246C11.9625 13.3461 11.8918 13.0778 11.8607 12.5669C11.9557 12.2043 12.1957 12.0362 12.4687 11.7868C12.6049 11.6529 12.6049 11.6529 12.7439 11.5163C16.5291 7.93122 21.8896 5.78246 27.0976 5.73698C27.2204 5.73381 27.3432 5.73064 27.4698 5.72737C27.6468 5.726 27.6468 5.726 27.8274 5.72459C27.9341 5.723 28.0407 5.7214 28.1507 5.71976C28.5175 5.78551 28.6449 5.92211 28.875 6.20866C28.9547 6.50873 28.9366 6.7803 28.875 7.08366C28.6676 7.38322 28.5396 7.49556 28.1864 7.58408C27.8825 7.6318 27.5868 7.65487 27.2796 7.66985C22.6698 7.92854 17.6794 9.41381 14.3281 12.7712C14.3029 13.0144 14.3029 13.0144 14.5389 13.21C14.6352 13.2988 14.7314 13.3876 14.8305 13.4791C14.9342 13.5776 15.0378 13.6761 15.1446 13.7775C15.3098 13.934 15.4756 14.0897 15.6436 14.2432C16.6955 15.2083 16.6955 15.2083 16.7309 15.8264C16.7136 16.1527 16.6448 16.2514 16.4115 16.4846C15.969 16.7819 15.5383 16.8849 15.0241 17.0093C14.9186 17.0361 14.8131 17.0628 14.7043 17.0904C14.3562 17.1781 14.0077 17.2639 13.659 17.3495C13.4164 17.4101 13.1738 17.4708 12.9312 17.5316C12.423 17.6586 11.9145 17.7846 11.4059 17.9099C10.7546 18.0704 10.1039 18.2329 9.45336 18.3962C8.95247 18.5216 8.45136 18.6462 7.95018 18.7705C7.71019 18.8301 7.47027 18.8899 7.2304 18.95C6.89477 19.0339 6.55886 19.1166 6.22286 19.199C6.07486 19.2363 6.07486 19.2363 5.92388 19.2744C5.39864 19.4017 4.91965 19.4907 4.37496 19.443C4.05368 19.2175 4.05368 19.2175 3.82809 18.8962C3.77129 18.2475 3.91498 17.6715 4.07215 17.0483C4.09812 16.9424 4.12409 16.8364 4.15084 16.7273C4.23658 16.3788 4.32365 16.0306 4.41085 15.6824C4.47115 15.4396 4.5314 15.1968 4.59162 14.954C4.7179 14.4458 4.84488 13.9377 4.97231 13.4298C5.13547 12.7791 5.2965 12.1279 5.45698 11.4765C5.58079 10.9752 5.70591 10.4742 5.8314 9.97335C5.89132 9.73336 5.95079 9.49326 6.00981 9.25304C6.09246 8.91734 6.17689 8.58214 6.26179 8.247C6.28579 8.1479 6.30978 8.04879 6.3345 7.94668C6.47009 7.42021 6.60468 7.04145 6.99996 6.64616C7.34773 6.49484 7.62748 6.53014 7.98434 6.64616C8.43782 6.98063 8.81324 7.3821 9.1943 7.7946C9.30024 7.90548 9.40641 8.01614 9.51281 8.12657C9.77131 8.39664 10.0272 8.66873 10.2812 8.94304C10.4193 8.84118 10.5571 8.73901 10.6948 8.6367C10.7716 8.57984 10.8483 8.52298 10.9274 8.46439C11.1419 8.29793 11.3407 8.12331 11.539 7.93816C14.879 4.98228 19.4839 3.17385 23.8437 2.48991C23.9701 2.46995 24.0965 2.44998 24.2267 2.42941C25.4594 2.25437 26.681 2.22751 27.9248 2.23015Z" fill="#253137"/>
<path d="M32.2655 11.0209C32.5674 11.2299 32.6765 11.3617 32.7734 11.715C32.8141 12.0179 32.7935 12.2303 32.7315 12.5283C32.7108 12.6304 32.6901 12.7325 32.6688 12.8377C32.6334 13.0037 32.6334 13.0037 32.5973 13.1732C32.5732 13.2908 32.549 13.4084 32.5241 13.5296C32.4439 13.9183 32.3622 14.3068 32.2805 14.6952C32.2243 14.9653 32.1683 15.2354 32.1124 15.5055C31.9949 16.0717 31.8767 16.6377 31.7579 17.2035C31.6207 17.857 31.4846 18.5107 31.3491 19.1645C31.2186 19.7943 31.0876 20.424 30.9562 21.0537C30.9004 21.3212 30.8447 21.5888 30.7891 21.8564C30.7113 22.2304 30.6329 22.6042 30.5543 22.978C30.5313 23.0887 30.5084 23.1994 30.4848 23.3135C30.4632 23.4156 30.4416 23.5177 30.4193 23.6229C30.4008 23.7112 30.3823 23.7995 30.3633 23.8905C30.2478 24.3337 30.1304 24.7427 29.7499 25.0209C29.514 25.0645 29.514 25.0645 29.2577 25.0619C29.1731 25.0628 29.0885 25.0636 29.0013 25.0645C28.7655 25.0209 28.7655 25.0209 28.5775 24.909C28.1409 24.2354 28.3783 23.4219 28.5324 22.6931C28.5644 22.5489 28.5964 22.4047 28.6284 22.2605C28.6605 22.1105 28.6926 21.9605 28.7245 21.8105C28.8083 21.4178 28.8938 21.0255 28.9796 20.6333C29.1171 20.0038 29.2519 19.3737 29.3871 18.7437C29.4344 18.5241 29.4823 18.3046 29.5303 18.0852C29.5591 17.9522 29.5879 17.8193 29.6176 17.6824C29.6432 17.5653 29.6688 17.4482 29.6952 17.3275C29.76 17.0321 29.76 17.0321 29.7499 16.7084C29.7088 16.7687 29.6677 16.829 29.6253 16.8911C29.5379 17.0193 29.5379 17.0193 29.4487 17.1502C29.3831 17.2464 29.3175 17.3425 29.2499 17.4416C29.1027 17.6576 28.9555 17.8735 28.8083 18.0894C28.4338 18.6386 28.0594 19.1878 27.685 19.7371C26.9857 20.7632 26.2857 21.7888 25.5842 22.8134C25.1308 23.4758 24.6785 24.1389 24.2264 24.8021C23.6594 25.6341 23.0915 26.4655 22.5227 27.2963C22.2031 27.7631 21.8841 28.2302 21.5656 28.6978C21.4941 28.8026 21.4227 28.9074 21.3492 29.0154C21.2131 29.2152 21.0771 29.415 20.9411 29.6149C20.5717 30.1573 20.2 30.6981 19.8261 31.2376C19.781 31.3027 19.7359 31.3679 19.6894 31.435C19.5794 31.5939 19.4693 31.7527 19.3593 31.9115C19.4572 31.9122 19.5551 31.9128 19.656 31.9135C20.5782 31.9198 21.5004 31.9277 22.4226 31.9373C22.8967 31.9422 23.3708 31.9465 23.8449 31.9494C24.3024 31.9523 24.7598 31.9567 25.2172 31.9622C25.3918 31.964 25.5665 31.9653 25.7411 31.966C25.9855 31.967 26.2298 31.9701 26.4741 31.9736C26.6133 31.9748 26.7524 31.976 26.8958 31.9773C27.2343 32.0209 27.2343 32.0209 27.44 32.1654C27.8017 32.708 27.667 33.3397 27.5536 33.9406C27.4943 34.2213 27.4335 34.5013 27.3714 34.7813C27.3392 34.9313 27.3072 35.0813 27.2753 35.2313C27.1915 35.624 27.106 36.0163 27.0201 36.4085C26.8827 37.038 26.7479 37.6681 26.6127 38.2981C26.5654 38.5177 26.5175 38.7372 26.4695 38.9566C26.4407 39.0896 26.4118 39.2225 26.3821 39.3594C26.3438 39.5351 26.3438 39.5351 26.3046 39.7143C26.2398 40.0097 26.2398 40.0097 26.2499 40.3334C26.3133 40.2404 26.3133 40.2404 26.3779 40.1455C27.1182 39.0591 27.8588 37.9729 28.6014 36.8881C29.3869 35.7408 30.17 34.5918 30.953 33.4428C31.7939 32.2089 32.6351 30.9754 33.4786 29.7433C33.9271 29.0879 34.3748 28.432 34.8221 27.7758C34.8899 27.6764 34.9576 27.5771 35.0274 27.4748C35.387 26.9472 35.7464 26.4195 36.1056 25.8916C36.1791 25.7836 36.2527 25.6756 36.3285 25.5643C36.4686 25.3584 36.6087 25.1524 36.7488 24.9464C36.9308 24.6791 37.1135 24.4123 37.2968 24.1459C37.3497 24.0685 37.4027 23.9911 37.4573 23.9113C37.8178 23.3932 37.8178 23.3932 38.0624 23.2709C38.8337 23.2087 38.8337 23.2087 39.2108 23.435C39.4373 23.8124 39.4355 24.1581 39.3749 24.5834C39.2369 24.8568 39.1102 25.0664 38.9305 25.308C38.8297 25.4513 38.7289 25.5945 38.6281 25.7378C38.5726 25.8152 38.5171 25.8926 38.4599 25.9723C38.1975 26.3418 37.944 26.7174 37.6896 27.0926C37.0483 28.0384 36.4012 28.9803 35.7557 29.9233C35.0283 30.9861 34.3033 32.0504 33.578 33.1146C32.7372 34.3485 31.8959 35.5821 31.0524 36.8141C30.3251 37.8768 29.6001 38.9411 28.8749 40.0053C26.8813 42.9307 26.8813 42.9307 25.9712 44.2576C25.8178 44.4817 25.6653 44.7063 25.5129 44.931C25.4236 45.0619 25.3343 45.1928 25.245 45.3236C25.169 45.4356 25.093 45.5475 25.0147 45.6629C24.828 45.9115 24.828 45.9115 24.6093 46.0209C23.8255 46.0841 23.8255 46.0841 23.4677 45.8363C23.1745 45.4024 23.1703 45.0568 23.2607 44.5528C23.3007 44.3563 23.3419 44.16 23.3841 43.9638C23.4063 43.8564 23.4285 43.7489 23.4514 43.6382C23.525 43.2833 23.6001 42.9288 23.6753 42.5743C23.7268 42.328 23.7782 42.0816 23.8295 41.8352C23.9371 41.3192 24.0455 40.8033 24.1545 40.2875C24.2943 39.6253 24.433 38.9629 24.5712 38.3003C24.7028 37.6695 24.835 37.0389 24.9673 36.4083C24.9926 36.2874 25.0179 36.1665 25.044 36.0419C25.1154 35.7012 25.1873 35.3605 25.2593 35.0199C25.2805 34.9182 25.3018 34.8166 25.3237 34.7118C25.3433 34.6194 25.3629 34.5269 25.3832 34.4317C25.4001 34.3511 25.4171 34.2706 25.4346 34.1876C25.4843 33.9896 25.4843 33.9896 25.5936 33.7709C25.4877 33.7719 25.3818 33.7728 25.2727 33.7738C24.2749 33.7827 23.2771 33.7893 22.2793 33.7936C21.7663 33.7959 21.2533 33.7989 20.7403 33.8039C20.2453 33.8087 19.7503 33.8113 19.2553 33.8124C19.0664 33.8132 18.8775 33.8148 18.6886 33.8172C18.4241 33.8203 18.1597 33.8208 17.8952 33.8206C17.817 33.8221 17.7388 33.8237 17.6582 33.8253C17.2924 33.8223 17.0936 33.7937 16.795 33.5753C16.5866 33.279 16.5627 33.0414 16.5825 32.6824C16.6531 32.309 16.8473 32.0322 17.0692 31.7338C17.1701 31.5905 17.2709 31.4473 17.3717 31.304C17.4272 31.2266 17.4827 31.1492 17.5398 31.0695C17.8023 30.7 18.0558 30.3244 18.3101 29.9492C18.9512 29.0036 19.5982 28.0619 20.2436 27.1192C20.697 26.4568 21.1494 25.7936 21.6014 25.1303C22.1111 24.3824 22.6214 23.6349 23.1327 22.8881C23.9182 21.7408 24.7012 20.5918 25.4843 19.4428C26.3246 18.2096 27.1653 16.9767 28.0084 15.7455C28.3998 15.1737 28.7902 14.6013 29.1803 14.0286C29.4545 13.6261 29.729 13.2239 30.0036 12.8217C30.1702 12.5773 30.3363 12.3326 30.5023 12.0877C30.591 11.9577 30.6797 11.8277 30.7684 11.6977C30.8425 11.5887 30.9165 11.4797 30.9927 11.3674C31.3222 10.931 31.7524 10.9477 32.2655 11.0209Z" fill="#253137"/>
<path d="M24.9375 49.5212C25.2109 49.6853 25.2109 49.6853 25.375 49.9587C25.4615 50.3985 25.443 50.7204 25.2109 51.1072C24.8242 51.3392 24.5023 51.3577 24.0625 51.2712C23.789 51.1072 23.789 51.1072 23.625 50.8337C23.5385 50.3939 23.557 50.072 23.789 49.6853C24.1758 49.4532 24.4977 49.4347 24.9375 49.5212Z" fill="#263137"/>
<path d="M31.9375 5.77122C32.2109 5.93528 32.2109 5.93528 32.375 6.20872C32.4615 6.64851 32.443 6.97042 32.2109 7.35716C31.8242 7.5892 31.5023 7.60774 31.0625 7.52122C30.789 7.35716 30.789 7.35716 30.625 7.08372C30.5385 6.64392 30.557 6.32202 30.789 5.93528C31.1758 5.70324 31.4977 5.6847 31.9375 5.77122Z" fill="#263137"/>
</svg>
